<svg id="visual" viewBox="0 0 1000 500" width="2000" height="1000" xmlns="http://www.w3.org/2000/svg" xmlns:xlink="http://www.w3.org/1999/xlink" version="1.1"><rect x="0" y="0" width="960" height="540" fill="#ffffff"></rect><defs><linearGradient id="grad1_0" x1="43.8%" y1="100%" x2="100%" y2="0%"><stop offset="14.444444444444446%" stop-color="#ff461e" stop-opacity="1"></stop><stop offset="85.55555555555554%" stop-color="#ff461e" stop-opacity="1"></stop></linearGradient></defs><defs><linearGradient id="grad1_1" x1="43.8%" y1="100%" x2="100%" y2="0%"><stop offset="14.444444444444446%" stop-color="#ff461e" stop-opacity="1"></stop><stop offset="85.55555555555554%" stop-color="#ff8c68" stop-opacity="1"></stop></linearGradient></defs><defs><linearGradient id="grad1_2" x1="43.8%" y1="100%" x2="100%" y2="0%"><stop offset="14.444444444444446%" stop-color="#ffc6b1" stop-opacity="1"></stop><stop offset="85.55555555555554%" stop-color="#ff8c68" stop-opacity="1"></stop></linearGradient></defs><defs><linearGradient id="grad1_3" x1="43.8%" y1="100%" x2="100%" y2="0%"><stop offset="14.444444444444446%" stop-color="#ffc6b1" stop-opacity="1"></stop><stop offset="85.55555555555554%" stop-color="#ffffff" stop-opacity="1"></stop></linearGradient></defs><defs><linearGradient id="grad2_0" x1="0%" y1="100%" x2="56.3%" y2="0%"><stop offset="14.444444444444446%" stop-color="#ff461e" stop-opacity="1"></stop><stop offset="85.55555555555554%" stop-color="#ff461e" stop-opacity="1"></stop></linearGradient></defs><defs><linearGradient id="grad2_1" x1="0%" y1="100%" x2="56.3%" y2="0%"><stop offset="14.444444444444446%" stop-color="#ff8c68" stop-opacity="1"></stop><stop offset="85.55555555555554%" stop-color="#ff461e" stop-opacity="1"></stop></linearGradient></defs><defs><linearGradient id="grad2_2" x1="0%" y1="100%" x2="56.3%" y2="0%"><stop offset="14.444444444444446%" stop-color="#ff8c68" stop-opacity="1"></stop><stop offset="85.55555555555554%" stop-color="#ffc6b1" stop-opacity="1"></stop></linearGradient></defs><defs><linearGradient id="grad2_3" x1="0%" y1="100%" x2="56.3%" y2="0%"><stop offset="14.444444444444446%" stop-color="#ffffff" stop-opacity="1"></stop><stop offset="85.55555555555554%" stop-color="#ffc6b1" stop-opacity="1"></stop></linearGradient></defs><g transform="translate(960, 540)"><path d="M-297 0C-287.1 -35.8 -277.3 -71.6 -265.2 -109.8C-253 -148.1 -238.7 -188.9 -210 -210C-181.4 -231.2 -138.4 -232.7 -101 -243.9C-63.6 -255.1 -31.8 -276.1 0 -297L0 0Z" fill="#ffe3d8"></path><path d="M-222.7 0C-215.4 -26.8 -208 -53.7 -198.9 -82.4C-189.8 -111.1 -179 -141.7 -157.5 -157.5C-136 -173.4 -103.8 -174.5 -75.8 -182.9C-47.7 -191.3 -23.9 -207 0 -222.7L0 0Z" fill="#ffaa8c"></path><path d="M-148.5 0C-143.6 -17.9 -138.6 -35.8 -132.6 -54.9C-126.5 -74.1 -119.3 -94.4 -105 -105C-90.7 -115.6 -69.2 -116.3 -50.5 -122C-31.8 -127.6 -15.9 -138 0 -148.5L0 0Z" fill="#ff6c44"></path><path d="M-74.2 0C-71.8 -8.9 -69.3 -17.9 -66.3 -27.5C-63.3 -37 -59.7 -47.2 -52.5 -52.5C-45.3 -57.8 -34.6 -58.2 -25.3 -61C-15.9 -63.8 -8 -69 0 -74.2L0 0Z" fill="#ff461e"></path></g><g transform="translate(0, 0)"><path d="M297 0C287.7 38.8 278.5 77.5 259.6 107.5C240.7 137.5 212.2 158.8 188.1 188.1C164 217.4 144.3 254.9 113.7 274.4C83 293.9 41.5 295.4 0 297L0 0Z" fill="#ffe3d8"></path><path d="M222.8 0C215.8 29.1 208.9 58.2 194.7 80.7C180.5 103.1 159.2 119.1 141.1 141.1C123 163.1 108.2 191.2 85.2 205.8C62.3 220.4 31.1 221.6 0 222.8L0 0Z" fill="#ffaa8c"></path><path d="M148.5 0C143.9 19.4 139.2 38.8 129.8 53.8C120.4 68.8 106.1 79.4 94 94C82 108.7 72.1 127.4 56.8 137.2C41.5 146.9 20.8 147.7 0 148.5L0 0Z" fill="#ff6c44"></path><path d="M74.3 0C71.9 9.7 69.6 19.4 64.9 26.9C60.2 34.4 53.1 39.7 47 47C41 54.4 36.1 63.7 28.4 68.6C20.8 73.5 10.4 73.9 0 74.3L0 0Z" fill="#ff461e"></path></g></svg>